<svg xmlns="http://www.w3.org/2000/svg" version="1.1" xmlns:xlink="http://www.w3.org/1999/xlink" xmlns:svgjs="http://svgjs.dev/svgjs" width="1500" height="738" viewBox="0 0 1500 738"><g transform="matrix(1,0,0,1,-0.9084522071641459,0.32133780096768305)"><svg viewBox="0 0 396 195" data-background-color="#ffffff" preserveAspectRatio="xMidYMid meet" height="738" width="1500" xmlns="http://www.w3.org/2000/svg" xmlns:xlink="http://www.w3.org/1999/xlink"><g id="tight-bounds" transform="matrix(1,0,0,1,0.24008861730862918,-0.08484431452555441)"><svg viewBox="0 0 395.52 195.16974082632265" height="195.16974082632265" width="395.52"><g><svg viewBox="0 0 395.52 195.16974082632265" height="195.16974082632265" width="395.52"><g><svg viewBox="0 0 395.52 195.16974082632265" height="195.16974082632265" width="395.52"><g id="textblocktransform"><svg viewBox="0 0 395.52 195.16974082632265" height="195.16974082632265" width="395.52" id="textblock"><g><svg viewBox="0 0 395.52 195.16974082632265" height="195.16974082632265" width="395.52"><path d="M394.594 41.86C392.735 21.602 387.435 15.97 387.435 15.97 371.165-4.897 350.86-0.399 332.619 2.599 300.414 2.721 268.339 7.178 236.208 9.568 168.767 9.933 100.749 3.936 33.643 18.725 27.339 23.263-6.54 19.616 1.121 44.453 3.129 54.785 10.456 66.251 10.232 75.732 11.236 77.394 12.631 73.585 13.226 75.976 15.309 82.418 18.711 79.379 21.501 83.188 17.614 93.357 20.403 101.825 23.062 110.699 18.377 113.008 12.371 111.914 9.675 119.572 9.396 125.123 7.89 124.069 6.235 123.826 5.026 123.664 2.59 124.272 2.999 126.014 4.394 131.97-1.594 135.414 2.162 141.249-0.422 147.569 3.948 153.039 3.353 159.886 3.278 161.264 3.687 162.439 4.338 162.763 7.22 164.505 3.018 167.909 3.464 171.596 33.029 196.798 65.104 179.375 95.394 190.963 103.259 182.86 97.346 193.84 100.489 192.138 102.943 190.153 104.728 198.378 107.499 193.718 107.927 192.381 107.276 189.221 108.8 189.829 109.6 190.153 110.307 190.072 110.418 188.208 110.586 185.412 109.117 187.154 108.726 185.696 112.947 178.322 111.906 195.866 115.866 195.136 115.68 192.989 114.528 189.91 116.889 190.315 119.232 187.236 119.306 184.683 121.389 191.611 121.463 193.111 121.835 194.164 122.43 194.893 128.938 187.357 135.409 197.567 142.233 194.164 146.417 190.436 150.433 196.19 154.672 194.772 156.16 193.637 157.666 191.611 159.098 195.015 176.632 195.744 195.319 192.705 211.943 195.136 256.364 190.598 303.836 197 350.674 191.004 361.719 188.694 373.192 185.412 383.958 182.779 383.958 182.779 392.679 175.567 392.679 143.153S394.538 114.791 394.817 88.982C395.096 63.172 396.398 62.119 394.538 41.86Z" opacity="1" fill="#b19dd0" data-fill-palette-color="tertiary"></path><g transform="matrix(1,0,0,1,55.76832,26.230666666666668)"><svg width="283.98335999999995" viewBox="2.1 -34.6 89.14 44.8" height="142.70840749298932" data-palette-color="#ffffff"><path d="M11.25 0.3L11.25 0.3Q7.3 0.3 4.7-2.93 2.1-6.15 2.1-11.75L2.1-11.75Q2.1-17.45 4.67-20.83 7.25-24.2 11.25-24.2L11.25-24.2Q15.3-24.2 18.75-21.35L18.75-21.35Q20.1-23.85 23.1-23.85L23.1-23.85Q25.8-23.85 27.3-22.68 28.8-21.5 28.8-18.35L28.8-18.35 28.8-5.35Q28.8-2.35 27.55-1.18 26.3 0 23.15 0L23.15 0Q19.85 0 18.8-1.85L18.8-1.85Q15.6 0.3 11.25 0.3ZM18.05-7.2L18.05-16.55Q17.2-18 15.85-18L15.85-18Q14.55-18 13.75-16.1 12.95-14.2 12.95-11.75L12.95-11.75Q12.95-9.45 13.7-7.65 14.45-5.85 15.8-5.85L15.8-5.85Q17.2-5.85 18.05-7.2L18.05-7.2ZM45.6-18.6L45.6-18.6 45.6-2.35Q45.6 3.25 43.45 6.73 41.3 10.2 36.6 10.2L36.6 10.2Q31.3 10.2 28.02 8.6 24.75 7 24.75 5.2L24.75 5.2Q24.75 3.85 25.77 3.28 26.8 2.7 29.35 2.7L29.35 2.7Q30.75 2.7 31.55 2.58 32.35 2.45 33.17 1.98 34 1.5 34.37 0.43 34.75-0.65 34.75-2.4L34.75-2.4 34.75-17.85Q34.75-20.95 36.27-22.4 37.8-23.85 40.3-23.85L40.3-23.85Q42.6-23.85 44.1-22.33 45.6-20.8 45.6-18.6ZM34.6-30.8L34.6-30.8Q34.6-32.45 36.02-33.52 37.45-34.6 40.05-34.6L40.05-34.6Q45.5-34.6 45.5-30.8L45.5-30.8Q45.5-28.7 44.12-27.85 42.75-27 40.05-27L40.05-27Q37.7-27 36.15-27.9 34.6-28.8 34.6-30.8ZM64.25 0.3L64.25 0.3Q58.15 0.3 54.17-2.85 50.2-6 50.2-11.45L50.2-11.45Q50.2-17.35 54.12-20.78 58.05-24.2 64.25-24.2L64.25-24.2Q70.1-24.2 72.82-22.13 75.55-20.05 75.55-16.45L75.55-16.45Q75.55-15.75 75.37-15.1 75.2-14.45 74.82-13.83 74.45-13.2 73.82-12.68 73.2-12.15 72.4-11.73 71.6-11.3 70.5-11.08 69.4-10.85 68.15-10.85L68.15-10.85 61.1-10.8Q61.6-9.2 62.9-8.28 64.2-7.35 66.2-7.35L66.2-7.35Q68.35-7.35 70.6-7.9L70.6-7.9Q71.55-8.15 72.67-8.7 73.8-9.25 74.3-9.25L74.3-9.25Q75.15-9.25 75.62-8.75 76.1-8.25 76.1-7.5L76.1-7.5Q76.1-6.6 75.3-5.33 74.5-4.05 73.07-2.78 71.65-1.5 69.3-0.6 66.95 0.3 64.25 0.3ZM60.85-14L60.85-14Q64.3-14.05 64.6-14.05L64.6-14.05Q65.35-14.05 65.7-14.95L65.7-14.95Q65.95-15.6 65.95-16.75L65.95-16.75Q65.95-19.9 64.05-19.9L64.05-19.9Q63.35-19.9 62.67-19.15 62-18.4 61.5-17.03 61-15.65 60.85-14ZM91.24-28.7L91.24-7.55Q91.24-3.5 89.89-1.75 88.54 0 85.74 0L85.74 0Q82.94 0 81.64-1.58 80.34-3.15 80.34-7.15L80.34-7.15 80.24-28.25Q80.24-29.55 80.52-30.55 80.79-31.55 81.27-32.25 81.74-32.95 82.44-33.4 83.14-33.85 83.97-34.05 84.79-34.25 85.74-34.25L85.74-34.25Q88.49-34.25 89.87-33.15 91.24-32.05 91.24-28.7L91.24-28.7Z" opacity="1" transform="matrix(1,0,0,1,0,0)" fill="#ffffff" class="wordmark-text-0" data-fill-palette-color="quaternary" id="text-0"></path></svg></g></svg></g></svg></g></svg></g><g></g></svg></g><defs></defs></svg><rect width="395.52" height="195.16974082632265" fill="none" stroke="none" visibility="hidden"></rect></g></svg></g></svg>